HIERARCHY
ROOT hip
{
  OFFSET 0.00112043 5.09927 -9.65472
  CHANNELS 6 Xposition Yposition Zposition Zrotation Xrotation Yrotation
  JOINT abdomen
  {
    OFFSET 0 -1.186 -1.5018
    CHANNELS 3 Zrotation Xrotation Yrotation
    JOINT abdomen2
    {
      OFFSET 0 9.964 0.2134
      CHANNELS 3 Zrotation Xrotation Yrotation
      JOINT chest
      {
        OFFSET 0 13.134 -3.2573
        CHANNELS 3 Zrotation Xrotation Yrotation
        JOINT neck
        {
          OFFSET 0 20.686 -1.6905
          CHANNELS 3 Zrotation Xrotation Yrotation
          JOINT head
          {
            OFFSET 0 7.238 -0.1237
            CHANNELS 3 Zrotation Xrotation Yrotation
            End Site
            {
              OFFSET 0 0 0
            }
          }
        }
        JOINT lCollar
        {
          OFFSET 1.7069 20.075 5.0056
          CHANNELS 3 Zrotation Xrotation Yrotation
          JOINT lShldr
          {
            OFFSET 13.6458 -0.047 -4.849
            CHANNELS 3 Zrotation Xrotation Yrotation
            JOINT lForeArm
            {
              OFFSET 28.3255 -0.9759 2.2888
              CHANNELS 3 Zrotation Xrotation Yrotation
              JOINT lHand
              {
                OFFSET 22.1583 -0.53 10.8316
                CHANNELS 3 Zrotation Xrotation Yrotation
                JOINT lThumb1
                {
                  OFFSET 0.786 0.112 2.5817
                  CHANNELS 3 Zrotation Xrotation Yrotation
                  JOINT lThumb2
                  {
                    OFFSET 0.3601 -0.878 4.2331
                    CHANNELS 3 Zrotation Xrotation Yrotation
                    JOINT lThumb2_End
                    {
                      OFFSET 1.8127 -1.216 2.2227
                      CHANNELS 3 Zrotation Xrotation Yrotation
                      End Site
                      {
                        OFFSET 0.0181 -0.0122 0.0222
                      }
                    }
                  }
                }
                JOINT lCarpal1
                {
                  OFFSET 0.9571 1.114 1.7695
                  CHANNELS 3 Zrotation Xrotation Yrotation
                  JOINT lIndex1
                  {
                    OFFSET 4.1246 0.487 4.1451
                    CHANNELS 3 Zrotation Xrotation Yrotation
                    JOINT lIndex2
                    {
                      OFFSET 3.4052 -1.454 2.7682
                      CHANNELS 3 Zrotation Xrotation Yrotation
                      JOINT lIndex2_End
                      {
                        OFFSET 1.4531 -1.795 1.2713
                        CHANNELS 3 Zrotation Xrotation Yrotation
                        End Site
                        {
                          OFFSET 0.0145 -0.0179 0.0127
                        }
                      }
                    }
                  }
                  JOINT lMid1
                  {
                    OFFSET 5.6954 0.21 2.1184
                    CHANNELS 3 Zrotation Xrotation Yrotation
                    JOINT lMid2
                    {
                      OFFSET 3.9766 -1.54 2.3863
                      CHANNELS 3 Zrotation Xrotation Yrotation
                      JOINT lMid2_End
                      {
                        OFFSET 1.4042 -1.926 1.125
                        CHANNELS 3 Zrotation Xrotation Yrotation
                        End Site
                        {
                          OFFSET 0.014 -0.0193 0.0113
                        }
                      }
                    }
                  }
                }
                JOINT lCarpal2
                {
                  OFFSET 2.0956 0.66 -0.3894
                  CHANNELS 3 Zrotation Xrotation Yrotation
                  JOINT lRing1
                  {
                    OFFSET 5.0395 -0.09 2.4971
                    CHANNELS 3 Zrotation Xrotation Yrotation
                    JOINT lRing2
                    {
                      OFFSET 3.7921 -1.552 1.4806
                      CHANNELS 3 Zrotation Xrotation Yrotation
                      JOINT lRing2_End
                      {
                        OFFSET 1.4655 -1.808 0.9609
                        CHANNELS 3 Zrotation Xrotation Yrotation
                        End Site
                        {
                          OFFSET 0.0147 -0.0181 0.0096
                        }
                      }
                    }
                  }
                  JOINT lPinky1
                  {
                    OFFSET 4.9141 -1.269 0.3591
                    CHANNELS 3 Zrotation Xrotation Yrotation
                    JOINT lPinky2
                    {
                      OFFSET 3.1477 -1.685 0.8462
                      CHANNELS 3 Zrotation Xrotation Yrotation
                      JOINT lPinky2_End
                      {
                        OFFSET 0.8055 -1.585 0.7955
                        CHANNELS 3 Zrotation Xrotation Yrotation
                        End Site
                        {
                          OFFSET 0.0081 -0.0158 0.008
                        }
                      }
                    }
                  }
                }
              }
            }
          }
        }
        JOINT rCollar
        {
          OFFSET -1.7069 20.075 5.0056
          CHANNELS 3 Zrotation Xrotation Yrotation
          JOINT rShldr
          {
            OFFSET -13.6458 -0.047 -4.849
            CHANNELS 3 Zrotation Xrotation Yrotation
            JOINT rForeArm
            {
              OFFSET -28.3255 -0.9759 2.2888
              CHANNELS 3 Zrotation Xrotation Yrotation
              JOINT rHand
              {
                OFFSET -22.1583 -0.53 10.8316
                CHANNELS 3 Zrotation Xrotation Yrotation
                JOINT rThumb1
                {
                  OFFSET -0.786 0.112 2.5817
                  CHANNELS 3 Zrotation Xrotation Yrotation
                  JOINT rThumb2
                  {
                    OFFSET -0.3601 -0.878 4.2331
                    CHANNELS 3 Zrotation Xrotation Yrotation
                    JOINT rThumb2_End
                    {
                      OFFSET -1.8127 -1.216 2.2227
                      CHANNELS 3 Zrotation Xrotation Yrotation
                      End Site
                      {
                        OFFSET -0.0181 -0.0122 0.0222
                      }
                    }
                  }
                }
                JOINT rCarpal1
                {
                  OFFSET -0.9571 1.114 1.7695
                  CHANNELS 3 Zrotation Xrotation Yrotation
                  JOINT rIndex1
                  {
                    OFFSET -4.1246 0.487 4.1451
                    CHANNELS 3 Zrotation Xrotation Yrotation
                    JOINT rIndex2
                    {
                      OFFSET -3.4052 -1.454 2.7682
                      CHANNELS 3 Zrotation Xrotation Yrotation
                      JOINT rIndex2_End
                      {
                        OFFSET -1.4531 -1.795 1.2713
                        CHANNELS 3 Zrotation Xrotation Yrotation
                        End Site
                        {
                          OFFSET -0.0145 -0.018 0.0127
                        }
                      }
                    }
                  }
                  JOINT rMid1
                  {
                    OFFSET -5.6954 0.21 2.1184
                    CHANNELS 3 Zrotation Xrotation Yrotation
                    JOINT rMid2
                    {
                      OFFSET -3.9766 -1.54 2.3863
                      CHANNELS 3 Zrotation Xrotation Yrotation
                      JOINT rMid2_End
                      {
                        OFFSET -1.4042 -1.926 1.125
                        CHANNELS 3 Zrotation Xrotation Yrotation
                        End Site
                        {
                          OFFSET -0.014 -0.0193 0.0113
                        }
                      }
                    }
                  }
                }
                JOINT rCarpal2
                {
                  OFFSET -2.0956 0.66 -0.3894
                  CHANNELS 3 Zrotation Xrotation Yrotation
                  JOINT rRing1
                  {
                    OFFSET -5.0395 -0.09 2.4971
                    CHANNELS 3 Zrotation Xrotation Yrotation
                    JOINT rRing2
                    {
                      OFFSET -3.7921 -1.552 1.4806
                      CHANNELS 3 Zrotation Xrotation Yrotation
                      JOINT rRing2_End
                      {
                        OFFSET -1.4655 -1.808 0.9609
                        CHANNELS 3 Zrotation Xrotation Yrotation
                        End Site
                        {
                          OFFSET -0.0147 -0.0181 0.0096
                        }
                      }
                    }
                  }
                  JOINT rPinky1
                  {
                    OFFSET -4.9141 -1.269 0.3592
                    CHANNELS 3 Zrotation Xrotation Yrotation
                    JOINT rPinky2
                    {
                      OFFSET -3.1477 -1.685 0.8462
                      CHANNELS 3 Zrotation Xrotation Yrotation
                      JOINT rPinky2_End
                      {
                        OFFSET -0.8055 -1.585 0.7955
                        CHANNELS 3 Zrotation Xrotation Yrotation
                        End Site
                        {
                          OFFSET -0.0081 -0.0158 0.008
                        }
                      }
                    }
                  }
                }
              }
            }
          }
        }
      }
    }
  }
  JOINT lThigh
  {
    OFFSET 8.367 -8.2066 0.5982
    CHANNELS 3 Zrotation Xrotation Yrotation
    JOINT lShin
    {
      OFFSET 2.1923 -43.463 -0.4932
      CHANNELS 3 Zrotation Xrotation Yrotation
      JOINT lFoot
      {
        OFFSET 0.7333 -45.8593 -2.6451
        CHANNELS 3 Zrotation Xrotation Yrotation
        End Site
        {
          OFFSET 2.6618 -4.2699 12.3931
        }
      }
    }
  }
  JOINT rThigh
  {
    OFFSET -8.367 -8.2066 0.5982
    CHANNELS 3 Zrotation Xrotation Yrotation
    JOINT rShin
    {
      OFFSET -2.1923 -43.463 -0.4931
      CHANNELS 3 Zrotation Xrotation Yrotation
      JOINT rFoot
      {
        OFFSET -0.7333 -45.8593 -2.6451
        CHANNELS 3 Zrotation Xrotation Yrotation
        End Site
        {
          OFFSET -2.6618 -4.2699 12.3931
        }
      }
    }
  }
}
MOTION
Frames:	4
Frame Time:	0.0333333
0 91.7903 2.51682 0 0 -0 0 0 -0 0 0 -0 0 0 -0 0 0 -0 0 0 -0 0 0 -0 1.66051 0.0835086 5.75766 -0.0175111 0.895433 15.7816 7.95139e-016 -1.98785e-016 -0 5.46658e-016 -3.97569e-016 -0 5.96354e-016 0 -0 3.97569e-016 1.98785e-016 9.54166e-015 1.49089e-016 -3.97569e-016 -0 6.4605e-016 0 3.18055e-015 5.96354e-016 0 3.18055e-015 8.94531e-016 -1.98785e-016 6.36111e-015 6.4605e-016 0 3.18055e-015 5.96354e-016 0 3.18055e-015 8.94531e-016 -1.98785e-016 6.36111e-015 1.49089e-016 -3.97569e-016 -0 6.4605e-016 0 3.18055e-015 5.96354e-016 0 3.18055e-015 8.94531e-016 -1.98785e-016 6.36111e-015 6.4605e-016 0 3.18055e-015 5.96354e-016 0 3.18055e-015 8.94531e-016 -1.98785e-016 6.36111e-015 0 0 -0 -1.4496 0.0636048 -5.0245 -1.74811 1.20616 -16.8394 -1.19271e-015 1.98785e-016 -3.18055e-015 -3.97569e-016 1.98785e-016 -3.18055e-015 -2.98177e-016 1.98785e-016 -3.18055e-015 -2.98177e-016 3.97569e-016 -0 4.96962e-016 0 -6.36111e-015 -9.93923e-017 3.97569e-016 -0 -8.94531e-016 5.96354e-016 -0 -3.97569e-016 3.97569e-016 -0 -9.93923e-017 3.97569e-016 -0 -8.94531e-016 5.96354e-016 -0 -3.97569e-016 3.97569e-016 -0 4.96962e-016 0 -6.36111e-015 -9.93923e-017 3.97569e-016 -0 -8.94531e-016 5.96354e-016 -0 -3.97569e-016 3.97569e-016 -0 -9.93923e-017 3.97569e-016 -0 -8.94531e-016 5.96354e-016 -0 -3.97569e-016 3.97569e-016 -0 -4.66111 -0.998717 0.12318 0.00986924 1.54847 0.176523 4.65186 -0.572283 -0.254274 4.66111 -0.998765 -0.123176 -0.00986867 1.54869 -0.176537 -4.65186 -0.572453 0.25427 
-1.92594 48.0505 -12.6097 24.3265 -43.7892 3.14516e-007 -2.9702 3.8388 -1.22276 -5.87756 7.73506 -2.25169 -5.87756 7.73507 -2.25169 -13.2627 -0.341342 3.71011 -0.656931 -0.932336 14.2277 -2.19737 -1.07942 -8.59681 -37.0758 -32.1286 -11.2582 -2.90401 32.7422 19.7953 -26.6215 0.466403 29.8985 -7.61297e-007 1.7058e-006 2.47023e-007 3.97569e-015 -1.59028e-015 -1.59028e-015 7.61297e-007 -1.7058e-006 -2.47023e-007 2.38542e-015 0 3.18055e-015 -7.61297e-007 1.7058e-006 2.47023e-007 4.57205e-015 -1.59028e-015 -0 7.61297e-007 -1.7058e-006 -2.47023e-007 -7.61297e-007 1.7058e-006 2.47023e-007 4.57205e-015 -1.59028e-015 -0 7.61297e-007 -1.7058e-006 -2.47023e-007 2.38542e-015 0 3.18055e-015 -7.61297e-007 1.7058e-006 2.47023e-007 4.57205e-015 -1.59028e-015 -0 7.61297e-007 -1.7058e-006 -2.47023e-007 -7.61297e-007 1.7058e-006 2.47023e-007 4.57205e-015 -1.59028e-015 -0 7.61297e-007 -1.7058e-006 -2.47023e-007 -5.26285 6.49075 -34.1837 2.08836 16.8892 8.46493 -30.1032 -20.7301 4.26043 -5.92499 -5.16552 2.64181 7.88097e-007 -2.08687e-007 -2.48607e-007 8.29723e-007 6.26067e-007 9.65318e-008 5.79408e-007 6.00223e-007 -8.96697e-008 -0 0 6.36111e-015 7.88097e-007 -2.08687e-007 -2.48607e-007 8.29723e-007 6.26067e-007 9.65318e-008 5.79408e-007 6.00223e-007 -8.96697e-008 7.88097e-007 -2.08687e-007 -2.48607e-007 8.29723e-007 6.26067e-007 9.65318e-008 5.79408e-007 6.00223e-007 -8.96697e-008 -0 0 6.36111e-015 7.88097e-007 -2.08687e-007 -2.48607e-007 8.29723e-007 6.26067e-007 9.65318e-008 5.79408e-007 6.00223e-007 -8.96697e-008 7.88097e-007 -2.08687e-007 -2.48607e-007 8.29723e-007 6.26067e-007 9.65318e-008 5.79408e-007 6.00223e-007 -8.96697e-008 3.16935 -52.4429 34.3198 4.43445 40.5646 -4.30334 5.2429 22.4117 -8.19775 -12.2898 -35.8971 -18.354 -1.4809 31.022 -0.29479 0.810541 10.7021 1.33808 
1.5309 6.47618 -19.2048 45.8365 -82.5084 7.74149e-006 -5.6365 7.02212 -2.48897 -11.088 14.251 -4.31506 -11.088 14.2511 -4.31509 -24.9356 -0.641219 6.96874 -0.85582 -1.62681 26.8171 -4.42099 -1.9708 -16.1993 -95.6587 -52.0565 -42.4018 -0.952594 61.4711 14.2193 -41.9379 2.85962 58.5836 5.97418e-006 -5.6394e-006 4.34683e-006 -7.55679e-006 4.85591e-006 -1.50662e-006 5.97418e-006 -5.6394e-006 4.34683e-006 3.18055e-015 3.18055e-015 7.95139e-015 5.97418e-006 -5.6394e-006 4.34683e-006 -7.55679e-006 4.85591e-006 -1.50662e-006 5.97418e-006 -5.6394e-006 4.34683e-006 5.97418e-006 -5.6394e-006 4.34683e-006 -7.55679e-006 4.85591e-006 -1.50662e-006 5.97418e-006 -5.6394e-006 4.34683e-006 3.18055e-015 3.18055e-015 7.95139e-015 5.97418e-006 -5.6394e-006 4.34683e-006 -7.55679e-006 4.85591e-006 -1.50662e-006 5.97418e-006 -5.6394e-006 4.34683e-006 5.97418e-006 -5.6394e-006 4.34683e-006 -7.55679e-006 4.85591e-006 -1.50662e-006 5.97418e-006 -5.6394e-006 4.34683e-006 -4.89674 6.42104 -64.6713 -1.97627 29.4723 23.1482 -43.5541 -32.062 27.5395 -10.9968 -9.5763 4.85092 3.97569e-016 -3.97569e-015 1.90833e-014 1.59028e-015 -1.19271e-015 1.27222e-014 3.97569e-016 -1.98785e-015 6.36111e-015 -7.95139e-016 -2.78299e-015 9.54166e-015 2.38542e-015 -3.57812e-015 1.59028e-014 7.95139e-016 -7.95139e-016 6.36111e-015 -7.95139e-016 -1.59028e-015 6.36111e-015 2.38542e-015 -3.57812e-015 1.59028e-014 7.95139e-016 -7.95139e-016 6.36111e-015 -7.95139e-016 -1.59028e-015 6.36111e-015 -7.95139e-016 -2.78299e-015 9.54166e-015 2.38542e-015 -3.57812e-015 1.59028e-014 7.95139e-016 -7.95139e-016 6.36111e-015 -7.95139e-016 -1.59028e-015 6.36111e-015 2.38542e-015 -3.57812e-015 1.59028e-014 7.95139e-016 -7.95139e-016 6.36111e-015 -7.95139e-016 -1.59028e-015 6.36111e-015 70.3634 -51.2851 108.604 24.3025 68.8983 -20.5972 13.8688 43.4676 -19.3028 -60.5574 -57.5158 -58.824 -5.52508 62.0591 2.70276 5.46112 17.6746 0.751698 
3.649 -7.58312 -20.1109 -126.326 -83.383 180 -6.60415 8.08907 -2.99123 -12.9722 16.4628 -5.09102 -12.9722 16.4628 -5.09101 -29.0861 -0.754673 8.03404 -0.792363 -1.87245 31.4129 -5.36698 -2.24766 -18.9396 -124.119 -54.2193 -59.199 4.73577 71.9228 7.43232 -46.219 5.39031 68.9103 1.31168e-006 4.07912e-007 1.01083e-006 1.31168e-006 4.07912e-007 1.01083e-006 1.31168e-006 4.07912e-007 1.01083e-006 3.18055e-015 0 3.18055e-015 1.31168e-006 4.07912e-007 1.01083e-006 1.31168e-006 4.07912e-007 1.01083e-006 1.31168e-006 4.07912e-007 1.01083e-006 1.31168e-006 4.07912e-007 1.01083e-006 1.31168e-006 4.07912e-007 1.01083e-006 1.31168e-006 4.07912e-007 1.01083e-006 3.18055e-015 0 3.18055e-015 1.31168e-006 4.07912e-007 1.01083e-006 1.31168e-006 4.07912e-007 1.01083e-006 1.31168e-006 4.07912e-007 1.01083e-006 1.31168e-006 4.07912e-007 1.01083e-006 1.31168e-006 4.07912e-007 1.01083e-006 1.31168e-006 4.07912e-007 1.01083e-006 -4.71994 4.45141 -75.4002 -5.31838 33.0099 29.5308 -46.5128 -33.1442 36.7847 -12.6728 -10.9812 5.69764 1.59028e-015 0 9.54166e-015 1.59028e-015 1.59028e-015 1.27222e-014 7.95139e-016 0 3.18055e-015 1.59028e-015 -7.95139e-016 9.54166e-015 -1.59028e-015 -1.59028e-015 2.22639e-014 7.95139e-016 3.18055e-015 3.18055e-015 -1.32417e-031 2.38542e-015 3.18055e-015 -1.59028e-015 -1.59028e-015 2.22639e-014 7.95139e-016 3.18055e-015 3.18055e-015 -1.32417e-031 2.38542e-015 3.18055e-015 1.59028e-015 -7.95139e-016 9.54166e-015 -1.59028e-015 -1.59028e-015 2.22639e-014 7.95139e-016 3.18055e-015 3.18055e-015 -1.32417e-031 2.38542e-015 3.18055e-015 -1.59028e-015 -1.59028e-015 2.22639e-014 7.95139e-016 3.18055e-015 3.18055e-015 -1.32417e-031 2.38542e-015 3.18055e-015 83.2468 -39.8247 119.847 54.1987 77.3211 -48.1534 19.7743 49.8594 -25.3078 -86.9652 -57.9017 -80.808 -10.085 72.5319 6.27596 6.9522 20.7609 0.662583 
